<svg width="28" height="29" viewBox="0 0 28 29" fill="none" xmlns="http://www.w3.org/2000/svg">
<path d="M23.6429 21.5H4.35714V14C4.35714 8.64286 8.64286 4.35714 14 4.35714C19.3571 4.35714 23.6429 8.64286 23.6429 14V21.5Z" fill="black" stroke="black" stroke-width="2" stroke-miterlimit="10" stroke-linecap="round" stroke-linejoin="round"/>
<path d="M26.8571 21.5H1.14286" stroke="black" stroke-width="2" stroke-miterlimit="10" stroke-linecap="round" stroke-linejoin="round"/>
<path d="M10.7857 4.35714C10.7857 2.53571 12.1786 1.14286 14 1.14286C15.8214 1.14286 17.2143 2.53571 17.2143 4.35714" fill="black"/>
<path d="M10.7857 4.35714C10.7857 2.53571 12.1786 1.14286 14 1.14286C15.8214 1.14286 17.2143 2.53571 17.2143 4.35714" stroke="black" stroke-width="2" stroke-miterlimit="10"/>
<path d="M18.2857 23.6429C18.2857 26 16.3571 27.9286 14 27.9286C11.6429 27.9286 9.71429 26 9.71429 23.6429" fill="black"/>
<path d="M18.2857 23.6429C18.2857 26 16.3571 27.9286 14 27.9286C11.6429 27.9286 9.71429 26 9.71429 23.6429" stroke="black" stroke-width="2" stroke-miterlimit="10"/>
</svg>
