<svg width="68" height="68" viewBox="0 0 68 68" fill="none" xmlns="http://www.w3.org/2000/svg">
<path d="M1.66406 41.6328L11.7656 41C11.9844 42.6406 12.4297 43.8906 13.1016 44.75C14.1953 46.1406 15.7578 46.8359 17.7891 46.8359C19.3047 46.8359 20.4688 46.4844 21.2812 45.7812C22.1094 45.0625 22.5234 44.2344 22.5234 43.2969C22.5234 42.4062 22.1328 41.6094 21.3516 40.9062C20.5703 40.2031 18.7578 39.5391 15.9141 38.9141C11.2578 37.8672 7.9375 36.4766 5.95312 34.7422C3.95312 33.0078 2.95312 30.7969 2.95312 28.1094C2.95312 26.3438 3.46094 24.6797 4.47656 23.1172C5.50781 21.5391 7.04688 20.3047 9.09375 19.4141C11.1562 18.5078 13.9766 18.0547 17.5547 18.0547C21.9453 18.0547 25.2891 18.875 27.5859 20.5156C29.8984 22.1406 31.2734 24.7344 31.7109 28.2969L21.7031 28.8828C21.4375 27.3359 20.875 26.2109 20.0156 25.5078C19.1719 24.8047 18 24.4531 16.5 24.4531C15.2656 24.4531 14.3359 24.7188 13.7109 25.25C13.0859 25.7656 12.7734 26.3984 12.7734 27.1484C12.7734 27.6953 13.0312 28.1875 13.5469 28.625C14.0469 29.0781 15.2344 29.5 17.1094 29.8906C21.75 30.8906 25.0703 31.9062 27.0703 32.9375C29.0859 33.9531 30.5469 35.2188 31.4531 36.7344C32.375 38.25 32.8359 39.9453 32.8359 41.8203C32.8359 44.0234 32.2266 46.0547 31.0078 47.9141C29.7891 49.7734 28.0859 51.1875 25.8984 52.1562C23.7109 53.1094 20.9531 53.5859 17.625 53.5859C11.7812 53.5859 7.73438 52.4609 5.48438 50.2109C3.23438 47.9609 1.96094 45.1016 1.66406 41.6328Z" fill="black"/>
<path d="M30.1172 18.6406H41.2266L48.9609 43.3672L56.5781 18.6406H67.3594L54.6094 53H43.1016L30.1172 18.6406Z" fill="black"/>
<line y1="16" x2="68" y2="16" stroke="black" stroke-width="2"/>
<line y1="55" x2="68" y2="55" stroke="black" stroke-width="2"/>
</svg>
